<?xml version="1.0" encoding="UTF-8" ?>
<!DOCTYPE svg PUBLIC "-//W3C//DTD SVG 1.1//EN" "http://www.w3.org/Graphics/SVG/1.1/DTD/svg11.dtd">
<svg width="200pt" height="54pt" viewBox="0 0 200 54" version="1.1" xmlns="http://www.w3.org/2000/svg">
<path fill="#ffffff" d=" M 0.00 0.00 L 184.29 0.00 C 177.36 1.64 172.35 8.92 173.99 15.97 C 174.66 19.77 177.52 22.56 180.54 24.68 C 180.53 27.52 180.50 30.47 181.87 33.06 C 182.30 29.49 183.28 25.28 180.52 22.35 C 178.51 19.52 175.58 16.77 176.06 12.95 C 175.80 5.80 183.70 0.23 190.39 2.69 C 195.39 4.00 197.39 9.24 198.45 13.77 C 197.95 17.85 195.37 21.13 192.28 23.65 C 192.25 26.59 192.22 29.53 192.34 32.47 C 192.68 30.04 192.75 27.56 193.37 25.18 C 195.21 22.43 197.73 20.20 199.57 17.43 L 200.00 16.88 L 200.00 54.00 L 0.00 54.00 L 0.00 0.00 Z" />
<path fill="#e6e0d0" d=" M 184.29 0.00 L 189.75 0.00 C 194.59 1.55 198.59 5.24 200.00 10.19 L 200.00 16.88 L 199.57 17.43 C 199.18 16.21 198.80 14.99 198.45 13.77 C 197.39 9.24 195.39 4.00 190.39 2.69 C 183.70 0.23 175.80 5.80 176.06 12.95 C 175.58 16.77 178.51 19.52 180.52 22.35 C 180.52 22.93 180.54 24.10 180.54 24.68 C 177.52 22.56 174.66 19.77 173.99 15.97 C 172.35 8.92 177.36 1.64 184.29 0.00 Z" />
<path fill="#ffffff" d=" M 189.75 0.00 L 200.00 0.00 L 200.00 10.19 C 198.59 5.24 194.59 1.55 189.75 0.00 Z" />
<path fill="#d1c5a6" d=" M 185.27 7.01 C 186.38 6.20 187.78 6.60 189.04 6.59 C 186.76 14.92 189.24 23.55 188.11 32.00 C 187.55 32.04 186.44 32.12 185.89 32.17 C 185.08 23.79 186.55 15.36 185.27 7.01 Z" />
<path fill="#d0c1a0" d=" M 177.98 13.70 C 177.24 12.35 177.60 11.38 179.05 10.79 C 182.09 11.48 182.87 15.13 184.12 17.56 L 184.04 18.12 C 182.02 16.64 179.88 15.32 177.98 13.70 Z" />
<path fill="#c3b48c" d=" M 189.03 18.08 C 190.94 15.50 192.03 10.61 195.99 11.06 C 197.97 14.99 191.35 15.13 190.56 18.42 C 189.92 23.10 190.99 27.95 189.52 32.53 C 188.97 27.75 188.47 22.88 189.03 18.08 Z" />
<path fill="#19a8a6" d=" M 7.35 12.16 C 9.81 12.15 12.27 12.16 14.74 12.19 C 14.29 14.00 13.84 15.81 13.41 17.62 C 11.02 17.64 8.63 17.65 6.25 17.66 C 6.61 15.83 6.98 13.99 7.35 12.16 Z" />
<path fill="#19a8a6" d=" M 18.93 12.16 C 23.31 12.14 27.69 12.15 32.08 12.13 C 32.79 18.52 33.28 24.92 33.95 31.31 C 38.12 25.40 40.62 18.51 44.07 12.18 C 48.63 12.11 53.19 12.10 57.75 12.25 C 55.33 22.65 53.41 33.17 50.93 43.56 C 48.27 43.53 45.60 43.53 42.94 43.53 C 44.46 35.28 46.94 27.25 48.69 19.05 C 44.01 27.12 39.78 35.43 35.20 43.55 C 32.80 43.52 30.40 43.49 28.00 43.44 C 27.20 35.73 26.08 28.05 25.34 20.34 C 25.16 20.34 24.80 20.34 24.63 20.34 C 23.32 28.10 22.04 35.86 20.47 43.57 C 17.76 43.53 15.04 43.51 12.33 43.50 C 14.43 33.03 16.74 22.61 18.93 12.16 Z" />
<path fill="#19a8a6" d=" M 112.99 12.19 C 115.44 12.15 117.89 12.13 120.34 12.11 C 119.93 13.96 119.52 15.81 119.11 17.66 C 116.76 17.66 114.42 17.66 112.08 17.67 C 112.38 15.84 112.69 14.02 112.99 12.19 Z" />
<path fill="#ae9a65" d=" M 198.45 13.77 C 198.80 14.99 199.18 16.21 199.57 17.43 C 197.73 20.20 195.21 22.43 193.37 25.18 C 192.75 27.56 192.68 30.04 192.34 32.47 C 192.22 29.53 192.25 26.59 192.28 23.65 C 195.37 21.13 197.95 17.85 198.45 13.77 Z" />
<path fill="#baa87a" d=" M 184.12 17.56 L 184.39 16.17 C 185.39 21.62 185.31 27.23 184.71 32.72 C 182.63 28.18 183.73 22.93 184.04 18.12 L 184.12 17.56 Z" />
<path fill="#19a8a6" d=" M 64.79 21.84 C 68.77 21.17 72.99 21.02 76.95 21.92 C 79.23 22.33 80.51 24.77 80.06 26.95 C 79.35 32.52 77.72 37.92 76.81 43.47 C 74.35 43.49 71.88 43.49 69.41 43.46 C 69.88 42.47 70.36 41.48 70.84 40.49 C 67.83 43.88 62.98 44.44 58.81 43.22 C 57.37 42.78 56.34 41.38 56.35 39.88 C 56.23 36.22 57.75 31.89 61.51 30.61 C 65.04 29.62 68.82 30.03 72.12 31.58 C 72.55 29.73 72.71 27.83 72.92 25.95 C 70.27 25.56 67.54 25.81 65.85 28.15 C 63.62 28.18 61.39 28.17 59.16 28.15 C 60.23 25.50 61.63 22.38 64.79 21.84 Z" />
<path fill="#19a8a6" d=" M 85.28 25.32 C 87.16 21.85 91.51 20.95 95.13 21.40 C 97.32 21.30 98.41 23.46 99.75 24.80 C 99.75 24.01 99.74 22.41 99.74 21.61 C 102.18 21.61 104.62 21.62 107.07 21.65 C 105.54 28.82 104.03 35.99 102.49 43.16 C 101.78 46.15 100.81 49.39 98.24 51.31 C 93.21 54.18 86.41 55.41 81.47 51.68 C 80.00 49.90 80.83 47.50 80.87 45.43 C 83.07 45.46 85.27 45.47 87.47 45.48 C 87.61 46.09 87.90 47.31 88.04 47.92 C 89.93 47.87 91.84 47.90 93.71 47.59 C 94.98 45.32 95.30 42.67 96.03 40.20 C 94.06 41.96 91.79 43.73 88.98 43.54 C 86.11 43.83 82.21 42.51 82.16 39.11 C 82.06 34.38 83.10 29.53 85.28 25.32 Z" />
<path fill="#19a8a6" d=" M 129.02 25.00 C 131.66 21.74 136.15 20.44 140.12 21.86 C 142.09 22.60 142.65 25.07 142.32 26.96 C 141.45 32.51 139.90 37.92 138.97 43.46 C 136.57 43.49 134.16 43.50 131.76 43.51 C 132.75 38.05 134.37 32.70 134.86 27.16 C 132.53 27.02 129.19 26.28 128.28 29.19 C 126.67 33.81 126.14 38.73 125.01 43.47 C 122.61 43.49 120.20 43.49 117.80 43.49 C 119.39 36.17 120.82 28.82 122.59 21.55 C 124.89 21.58 127.20 21.60 129.50 21.62 C 129.38 22.47 129.14 24.16 129.02 25.00 Z" />
<path fill="#19a8a6" d=" M 151.99 22.01 C 155.85 21.08 160.11 20.97 163.94 22.12 C 168.48 24.19 166.48 29.92 166.09 33.75 C 161.12 33.76 156.13 33.56 151.16 34.02 C 151.50 35.51 151.08 37.37 152.25 38.55 C 154.78 39.25 157.49 38.72 158.77 36.25 C 161.03 36.16 163.29 36.13 165.55 36.12 C 164.68 39.24 162.88 42.45 159.45 43.18 C 155.18 43.92 150.42 44.37 146.38 42.49 C 143.40 40.71 144.18 36.72 144.50 33.84 C 145.27 29.21 146.85 23.44 151.99 22.01 Z" />
<path fill="#19a8a6" d=" M 5.35 21.68 C 7.78 21.63 10.21 21.60 12.63 21.56 C 11.16 28.91 9.67 36.27 7.87 43.55 C 5.57 43.54 3.27 43.54 0.96 43.54 C 2.02 36.18 4.00 28.99 5.35 21.68 Z" />
<path fill="#19a8a6" d=" M 111.09 21.63 C 113.51 21.61 115.94 21.61 118.37 21.61 C 116.93 28.90 115.21 36.13 113.82 43.44 C 111.38 43.49 108.94 43.51 106.50 43.54 C 107.92 36.22 109.64 28.95 111.09 21.63 Z" />
<path fill="#ae9a65" d=" M 180.54 24.68 C 180.54 24.10 180.52 22.93 180.52 22.35 C 183.28 25.28 182.30 29.49 181.87 33.06 C 180.50 30.47 180.53 27.52 180.54 24.68 Z" />
<path fill="#ffffff" d=" M 91.69 27.69 C 93.37 26.26 95.88 27.24 97.90 27.13 C 97.78 30.42 97.89 34.06 95.91 36.88 C 94.28 38.44 91.72 37.64 89.70 37.93 C 89.59 34.45 89.81 30.73 91.69 27.69 Z" />
<path fill="#ffffff" d=" M 152.40 29.76 C 153.05 27.06 155.36 25.85 158.03 26.47 C 159.87 26.10 159.47 28.68 160.14 29.73 C 157.56 29.81 154.98 29.82 152.40 29.76 Z" />
<path fill="#ae9a65" d=" M 179.57 33.44 C 184.21 33.37 189.27 32.37 193.63 34.32 C 189.74 34.87 185.83 35.50 181.89 35.27 C 181.07 34.72 180.30 34.11 179.57 33.44 Z" />
<path fill="#fefefe" d=" M 63.86 36.95 C 64.35 33.22 68.86 34.99 71.39 34.78 C 70.90 36.62 70.60 39.28 68.04 39.14 C 66.49 39.21 63.08 39.54 63.86 36.95 Z" />
<path fill="#bcac7f" d=" M 180.57 36.67 C 184.79 36.33 189.06 36.39 193.28 36.82 C 193.17 37.27 192.96 38.16 192.85 38.61 C 188.82 39.09 184.73 39.09 180.68 38.93 C 180.65 38.37 180.59 37.24 180.57 36.67 Z" />
<path fill="#ae9a65" d=" M 180.75 40.35 C 184.90 40.22 189.04 40.30 193.19 40.44 C 191.39 41.89 189.57 43.90 187.03 43.68 C 184.42 43.90 182.46 42.04 180.75 40.35 Z" />
</svg>
